<svg id="Capa_1" enable-background="new 0 0 512.591 512.591" height="512" viewBox="0 0 512.591 512.591" width="512" xmlns="http://www.w3.org/2000/svg"><g><g><path d="m256.295 451.485s32.875-22.881 73.811-53.303h-148.929c41.517 30.469 75.118 53.303 75.118 53.303z" fill="#cc98ff"/></g><g><path d="m373.461 61.105c-43.618 0-82.266 21.226-106.217 53.9h212.446c-23.953-32.677-62.61-53.9-106.229-53.9z" fill="#e478a4"/></g><g><path d="m139.13 61.105c-43.62 0-82.277 21.223-106.228 53.9h212.445c-23.952-32.674-62.6-53.9-106.217-53.9z" fill="#e478a4"/></g><g><path d="m181.177 398.183h148.929c29.098-21.624 62.256-47.051 90.599-70.794h-330.49c28.225 23.838 61.572 49.226 90.962 70.794z" fill="#75cff9"/></g><g><path d="m504.909 185.8c-1.371-26.41-10.531-50.754-25.22-70.794h-212.446c-4.09 5.58-7.765 11.484-10.948 17.683-3.184-6.199-6.858-12.103-10.948-17.683h-212.445c-14.689 20.039-23.85 44.384-25.221 70.794z" fill="#ffb56d"/></g><g><path d="m7.5 192.736c0 23.238 6.36 44.825 16.813 63.858h464.402c10.548-18.852 16.375-40.714 16.375-63.858 0-2.327-.062-4.639-.182-6.936h-497.227c-.119 2.297-.181 4.609-.181 6.936z" fill="#ffeba8"/></g><g><path d="m33.677 271.529c10.631 14.917 31.58 34.78 56.538 55.86h330.49c25.437-21.309 46.991-41.257 58.208-55.86 3.623-4.717 6.883-9.717 9.802-14.935h-464.402c2.839 5.17 5.963 10.162 9.364 14.935z" fill="#a1f2c0"/></g><g><path d="m300.106 398.183c-24.175 17.965-45.532 33.297-58.974 42.843 9.515 6.621 15.163 10.46 15.163 10.46s32.875-22.881 73.811-53.303z" fill="#ba87ee"/></g><g><path d="m373.46 61.105c-5.073 0-10.076.299-14.999.858 37.409 4.246 70.062 24.166 91.228 53.042h30c-23.952-32.677-62.609-53.9-106.229-53.9z" fill="#d5558c"/></g><g><path d="m390.705 327.388c-28.343 23.743-61.501 49.171-90.599 70.794h30c29.097-21.624 62.256-47.051 90.599-70.794z" fill="#6cbff8"/></g><g><path d="m479.689 115.005h-30c14.689 20.04 23.849 44.385 25.22 70.794h30c-1.371-26.409-10.531-50.754-25.22-70.794z" fill="#ff9f59"/></g><g><path d="m504.909 185.8h-30c.119 2.297.182 4.609.182 6.936 0 23.144-5.828 45.007-16.375 63.858h30c10.548-18.852 16.375-40.714 16.375-63.858 0-2.327-.063-4.639-.182-6.936z" fill="#fddf7c"/></g><g><path d="m458.715 256.594c-2.919 5.217-6.179 10.218-9.802 14.935-11.217 14.602-32.771 34.551-58.208 55.86h30c25.437-21.309 46.991-41.257 58.208-55.86 3.623-4.717 6.883-9.717 9.802-14.935z" fill="#83e8a3"/></g><path d="m373.461 53.605c-47.925 0-91.697 24.232-117.166 64.048-25.468-39.817-69.239-64.048-117.165-64.048-76.717 0-139.13 62.414-139.13 139.131 0 29.087 9.533 57.838 27.57 83.146 16.886 23.695 59.877 61.539 127.779 112.482 50.258 37.706 96.271 69.014 96.73 69.326 1.272.865 2.744 1.297 4.215 1.297 1.499 0 2.997-.448 4.284-1.344.455-.316 46.034-32.074 96.068-69.996 67.542-51.191 110.679-88.721 128.214-111.548 18.141-23.617 27.73-52.443 27.73-83.362.001-76.718-62.412-139.132-139.129-139.132zm0 15c35.473 0 67.516 14.961 90.158 38.9h-180.468c23.093-24.537 55.468-38.9 90.31-38.9zm-234.331 0c34.842 0 67.217 14.363 90.309 38.9h-180.467c22.642-23.939 54.685-38.9 90.158-38.9zm117.116 373.755c-8.262-5.685-27.759-19.203-51.975-36.677h103.001c-23.801 17.436-42.894 30.956-51.026 36.677zm71.339-51.677h-143.91c-23.402-17.206-49.137-36.709-72.638-55.794h288.758c-23.502 19.039-49.058 38.56-72.21 55.794zm90.393-70.795h-325.029c-23.568-20.005-43.175-38.697-53.163-52.713-.726-1.019-1.419-2.051-2.114-3.082h322.735c4.142 0 7.5-3.358 7.5-7.5s-3.358-7.5-7.5-7.5h-331.58c-8.997-17.737-13.724-36.703-13.815-55.794h75.203c4.143 0 7.5-3.358 7.5-7.5s-3.357-7.5-7.5-7.5h-74.371c2.389-20.535 9.808-39.555 20.992-55.794h204.662c2.96 4.325 5.685 8.859 8.125 13.609 1.284 2.501 3.86 4.074 6.672 4.074s5.388-1.573 6.672-4.074c2.439-4.751 5.164-9.284 8.125-13.609h204.663c11.184 16.239 18.603 35.259 20.992 55.794h-376.532c-4.142 0-7.5 3.358-7.5 7.5s3.358 7.5 7.5 7.5h377.365c-.084 19.97-4.647 38.915-13.317 55.794h-93.857c-4.143 0-7.5 3.358-7.5 7.5s3.357 7.5 7.5 7.5h84.667c-.693.961-1.383 1.924-2.107 2.866-10.589 13.785-30.861 32.633-54.988 52.929z"/></g></svg>